# xmcd
#
# Track frame offsets:
#	150
#	24140
#	39876
#	56979
#	82950
#	107843
#	152195
#	169780
#	201268
#	224723
#
# Disc length: 3604 seconds
#
# Revision: 0
# Processed by: cddbd v1.5.2PL0 Copyright (c) Steve Scherf et al.
# Submitted via: EasyCDDAExtractor 16.0.1.1
#
DISCID=840e120a
DTITLE=Deana Bogart Band - Live At Birchmere
DYEAR=2000
DGENRE=Blues
TTITLE0=Ok I'll Play the Blues
TTITLE1=Won't Be Long
TTITLE2=Peephole
TTITLE3=Honeybee
TTITLE4=Love And Attention
TTITLE5=Checks And Love Letters
TTITLE6=But You Know
TTITLE7=If I Get Old
TTITLE8=They Said It Wouldn't Rain
TTITLE9=(Woke Up On The) Wrong Side Of Love
EXTD=
EXTT0=
EXTT1=
EXTT2=
EXTT3=
EXTT4=
EXTT5=
EXTT6=
EXTT7=
EXTT8=
EXTT9=
PLAYORDER=
